<?xml version="1.0" encoding="UTF-8"?>
<svg id="Layer_2" data-name="Layer 2" xmlns="http://www.w3.org/2000/svg" xmlns:xlink="http://www.w3.org/1999/xlink" viewBox="0 0 470.67 458.11">
  <defs>
    <style>
      .cls-1 {
        stroke: url(#Sky_22);
      }

      .cls-1, .cls-2, .cls-3, .cls-4, .cls-5, .cls-6, .cls-7, .cls-8, .cls-9, .cls-10, .cls-11, .cls-12, .cls-13, .cls-14, .cls-15, .cls-16, .cls-17, .cls-18, .cls-19, .cls-20, .cls-21, .cls-22, .cls-23, .cls-24, .cls-25, .cls-26, .cls-27, .cls-28, .cls-29, .cls-30, .cls-31, .cls-32, .cls-33, .cls-34 {
        fill: none;
        stroke-miterlimit: 10;
      }

      .cls-2 {
        stroke: url(#Sky_22-31);
      }

      .cls-3 {
        stroke: url(#Sky_22-30);
      }

      .cls-4 {
        stroke: url(#Sky_22-32);
      }

      .cls-5 {
        stroke: url(#Sky_22-33);
      }

      .cls-6 {
        stroke: url(#Sky_22-34);
      }

      .cls-7 {
        stroke: url(#Sky_22-26);
      }

      .cls-8 {
        stroke: url(#Sky_22-22);
      }

      .cls-9 {
        stroke: url(#Sky_22-21);
      }

      .cls-10 {
        stroke: url(#Sky_22-23);
      }

      .cls-11 {
        stroke: url(#Sky_22-24);
      }

      .cls-12 {
        stroke: url(#Sky_22-25);
      }

      .cls-13 {
        stroke: url(#Sky_22-20);
      }

      .cls-14 {
        stroke: url(#Sky_22-28);
      }

      .cls-15 {
        stroke: url(#Sky_22-27);
      }

      .cls-16 {
        stroke: url(#Sky_22-29);
      }

      .cls-17 {
        stroke: url(#Sky_22-16);
      }

      .cls-18 {
        stroke: url(#Sky_22-15);
      }

      .cls-19 {
        stroke: url(#Sky_22-10);
      }

      .cls-20 {
        stroke: url(#Sky_22-11);
      }

      .cls-21 {
        stroke: url(#Sky_22-12);
      }

      .cls-22 {
        stroke: url(#Sky_22-14);
      }

      .cls-23 {
        stroke: url(#Sky_22-13);
      }

      .cls-24 {
        stroke: url(#Sky_22-19);
      }

      .cls-25 {
        stroke: url(#Sky_22-18);
      }

      .cls-26 {
        stroke: url(#Sky_22-17);
      }

      .cls-27 {
        stroke: url(#Sky_22-8);
      }

      .cls-28 {
        stroke: url(#Sky_22-4);
      }

      .cls-29 {
        stroke: url(#Sky_22-7);
      }

      .cls-30 {
        stroke: url(#Sky_22-6);
      }

      .cls-31 {
        stroke: url(#Sky_22-9);
      }

      .cls-32 {
        stroke: url(#Sky_22-3);
      }

      .cls-33 {
        stroke: url(#Sky_22-2);
      }

      .cls-34 {
        stroke: url(#Sky_22-5);
      }
    </style>
    <linearGradient id="Sky_22" data-name="Sky 22" x1="183.55" y1="170.01" x2="458.52" y2="170.01" gradientTransform="translate(-18.91 20.55) rotate(-4.6)" gradientUnits="userSpaceOnUse">
      <stop offset="0" stop-color="#784b6a"/>
      <stop offset=".22" stop-color="#f3ad86"/>
      <stop offset=".39" stop-color="#f7d291"/>
      <stop offset=".43" stop-color="#f2cf98"/>
      <stop offset=".71" stop-color="#d4bec7"/>
      <stop offset=".77" stop-color="#dbbabc"/>
      <stop offset=".91" stop-color="#ecb2a7"/>
      <stop offset="1" stop-color="#f2b0a0"/>
    </linearGradient>
    <linearGradient id="Sky_22-2" data-name="Sky 22" x1="178.84" y1="172.22" x2="452.36" y2="172.22" xlink:href="#Sky_22"/>
    <linearGradient id="Sky_22-3" data-name="Sky 22" x1="174.53" y1="174.45" x2="446.63" y2="174.45" xlink:href="#Sky_22"/>
    <linearGradient id="Sky_22-4" data-name="Sky 22" x1="170.64" y1="177.07" x2="441.37" y2="177.07" xlink:href="#Sky_22"/>
    <linearGradient id="Sky_22-5" data-name="Sky 22" x1="167.17" y1="179.53" x2="436.59" y2="179.53" xlink:href="#Sky_22"/>
    <linearGradient id="Sky_22-6" data-name="Sky 22" x1="164.06" y1="181.74" x2="432.24" y2="181.74" xlink:href="#Sky_22"/>
    <linearGradient id="Sky_22-7" data-name="Sky 22" x1="161.26" y1="183.88" x2="428.23" y2="183.88" xlink:href="#Sky_22"/>
    <linearGradient id="Sky_22-8" data-name="Sky 22" x1="158.69" y1="185.96" x2="424.45" y2="185.96" xlink:href="#Sky_22"/>
    <linearGradient id="Sky_22-9" data-name="Sky 22" x1="156.21" y1="187.81" x2="420.66" y2="187.81" xlink:href="#Sky_22"/>
    <linearGradient id="Sky_22-10" data-name="Sky 22" x1="153.71" y1="192.24" x2="416.75" y2="192.24" xlink:href="#Sky_22"/>
    <linearGradient id="Sky_22-11" data-name="Sky 22" x1="151" y1="196.98" x2="412.7" y2="196.98" xlink:href="#Sky_22"/>
    <linearGradient id="Sky_22-12" data-name="Sky 22" x1="147.91" y1="201.77" x2="408.45" y2="201.77" xlink:href="#Sky_22"/>
    <linearGradient id="Sky_22-13" data-name="Sky 22" x1="144.21" y1="206.56" x2="403.99" y2="206.56" xlink:href="#Sky_22"/>
    <linearGradient id="Sky_22-14" data-name="Sky 22" x1="139.69" y1="211.36" x2="399.31" y2="211.36" xlink:href="#Sky_22"/>
    <linearGradient id="Sky_22-15" data-name="Sky 22" x1="134.23" y1="215.84" x2="394.43" y2="215.84" xlink:href="#Sky_22"/>
    <linearGradient id="Sky_22-16" data-name="Sky 22" x1="127.86" y1="219.86" x2="389.35" y2="219.86" xlink:href="#Sky_22"/>
    <linearGradient id="Sky_22-17" data-name="Sky 22" x1="121.02" y1="223.42" x2="384.13" y2="223.42" xlink:href="#Sky_22"/>
    <linearGradient id="Sky_22-18" data-name="Sky 22" x1="114.04" y1="226.58" x2="378.82" y2="226.58" xlink:href="#Sky_22"/>
    <linearGradient id="Sky_22-19" data-name="Sky 22" x1="107.18" y1="229.43" x2="373.48" y2="229.43" xlink:href="#Sky_22"/>
    <linearGradient id="Sky_22-20" data-name="Sky 22" x1="100.6" y1="232.11" x2="368.21" y2="232.11" xlink:href="#Sky_22"/>
    <linearGradient id="Sky_22-21" data-name="Sky 22" x1="94.47" y1="234.71" x2="363.11" y2="234.71" xlink:href="#Sky_22"/>
    <linearGradient id="Sky_22-22" data-name="Sky 22" x1="88.85" y1="237.27" x2="357.88" y2="237.27" xlink:href="#Sky_22"/>
    <linearGradient id="Sky_22-23" data-name="Sky 22" x1="83.75" y1="239.77" x2="352.25" y2="239.77" xlink:href="#Sky_22"/>
    <linearGradient id="Sky_22-24" data-name="Sky 22" x1="79.12" y1="242.31" x2="346.47" y2="242.31" xlink:href="#Sky_22"/>
    <linearGradient id="Sky_22-25" data-name="Sky 22" x1="74.88" y1="244.95" x2="340.72" y2="244.95" xlink:href="#Sky_22"/>
    <linearGradient id="Sky_22-26" data-name="Sky 22" x1="70.83" y1="247.77" x2="335.17" y2="247.77" xlink:href="#Sky_22"/>
    <linearGradient id="Sky_22-27" data-name="Sky 22" x1="66.94" y1="250.8" x2="329.91" y2="250.8" xlink:href="#Sky_22"/>
    <linearGradient id="Sky_22-28" data-name="Sky 22" x1="63.16" y1="254.22" x2="325" y2="254.22" xlink:href="#Sky_22"/>
    <linearGradient id="Sky_22-29" data-name="Sky 22" x1="59.36" y1="258.08" x2="320.45" y2="258.08" xlink:href="#Sky_22"/>
    <linearGradient id="Sky_22-30" data-name="Sky 22" x1="55.57" y1="262.29" x2="316.21" y2="262.29" xlink:href="#Sky_22"/>
    <linearGradient id="Sky_22-31" data-name="Sky 22" x1="51.82" y1="266.78" x2="312.2" y2="266.78" xlink:href="#Sky_22"/>
    <linearGradient id="Sky_22-32" data-name="Sky 22" x1="48.09" y1="271.46" x2="308.28" y2="271.46" xlink:href="#Sky_22"/>
    <linearGradient id="Sky_22-33" data-name="Sky 22" x1="44.36" y1="276.24" x2="304.26" y2="276.24" xlink:href="#Sky_22"/>
    <linearGradient id="Sky_22-34" data-name="Sky 22" x1="40.58" y1="281.01" x2="299.9" y2="281.01" xlink:href="#Sky_22"/>
  </defs>
  <g id="Layer_1-2" data-name="Layer 1">
    <g>
      <path class="cls-1" d="M163.99.33c9.68,11.25,18.67,22.82,27.34,34.85,6.5,9.02,19.52,21.13,24.71,30.94,7.42,14.01-2.08,24.14,1.45,38,5.77,22.6,52.76,28.94,70.6,35.73,5.94,2.26,31.51,7.83,33.55,14.68,2.11,7.08-1.73,7.27-5.09,14.43-5.76,12.3-8.14,36.84-2.22,49.51,8.77,18.77,41.83,27.68,58.51,36.42,11.59,6.07,23.39,11.92,30.33,23.39,4.08,6.74,4.59,15.81,7.96,22.98,10.86,23.09,30.31,34.43,54.21,24.17"/>
      <path class="cls-33" d="M159.6,4.54c16.07,18.46,30.7,38.46,44.74,58.49,9.77,13.93,6.59,19.87,5.51,35.48-1.63,23.52,21.13,25.98,39.83,32.35,21.95,7.47,49.11,12.71,68.04,26.55-12.35,11.79-14.32,33.03-11.56,49.28,4.39,25.88,30.52,33.58,51.67,44.69,10.16,5.33,27.94,12.74,35.03,22.82,5.45,7.75,4.71,18.51,7.8,27.08,10.09,28.02,32.16,36.85,58.39,23.2"/>
      <path class="cls-32" d="M155.62,8.83c15.69,17.74,33.79,38.69,45.08,59.51,6.79,12.52,1.07,20.69.98,33.6-.14,20.85,19.14,23.65,35.94,29.18,24.09,7.93,51.16,13,72.82,26.66-14,11.25-13.67,34.28-9.7,50.43,6.26,25.43,32.61,32.75,53.58,44.7,9.46,5.39,26.2,13.28,31.85,23.73,4.57,8.45,2.66,19.02,5.37,27.95,9.61,31.53,35.85,33.36,61.68,19.04"/>
      <path class="cls-28" d="M152.06,13.08c14.61,16.19,39.16,41.62,44,63.91,3.29,15.16-9.19,32.45,4.66,44.78,9.07,8.07,26.02,9.76,37.15,13.19,15.91,4.9,32.09,9.23,47.63,15.28,4.29,1.83,8.58,3.65,12.86,5.48,2.97,3.29,2.48,5.98-1.47,8.06-.88,6.49-5.83,13.13-5.64,21.44.42,17.92,4.85,35.19,19.64,45.81,18.95,13.61,43.93,20.27,60.15,37.65,14.28,15.3,5.86,33.01,15.52,50.27,13.82,24.68,41.71,15.02,61.36,4.31"/>
      <path class="cls-34" d="M148.9,17.17c15.22,16.56,38.81,41.23,39.78,65.43.68,16.9-8.22,30.07,7.33,41.84,22.45,17,58.93,14.13,83.86,27.41,14.81,7.89,7.54,4.36,5.37,15.58-1.95,10.09-3.2,13.28-1.13,23.42,4.22,20.63,10.19,33.75,28.82,44.25,18.39,10.37,46.16,19.53,56.45,39.45,7.87,15.23-.86,32.51,8.07,47.71,14.71,25.05,46.43,10.95,65.72,1.39"/>
      <path class="cls-30" d="M146.09,21.04c17.98,19.27,36.67,39.62,34.38,67.17-1.7,20.41-5.82,31.79,16.18,41.16,13.53,5.76,29.4,8.21,43.38,12.24,8.94,2.57,27.32,5.2,34.4,11.64,10.65,9.67,1.71,9.46-.13,22.98-1.06,7.83.77,12.91,3.12,20.23,6.12,19.1,14.67,30.01,32.53,39.24,18.11,9.36,46,19.24,53.67,40.27,5.84,16.03-5.22,34.47,5.2,49.43,16.35,23.48,50.23,7.9,70.15-.3"/>
      <path class="cls-29" d="M143.57,24.65c17.02,18.07,34.07,36.9,29.76,63.2-3.44,21-6.34,35.13,17.68,43.44,14.28,4.94,29.51,7.26,44,11.57,6.65,1.97,32.38,6.74,35.19,14.13,1.2,3.15-3.47,14.55-3.67,18.47-.52,9.88,1.25,17.56,5.02,26.36,9.22,21.5,21.69,27.56,42.06,37.37,17.14,8.26,39.79,17.14,44.5,37.73,3.8,16.63-9.43,36.27,2.79,51.36,17.55,21.68,53.51,5.6,74.3-.57"/>
      <path class="cls-27" d="M141.26,28.01c19.16,20.34,30.04,36.65,24.05,64.75-5.64,26.47,1.88,35.18,28.09,41.91,18.15,4.66,58.01,7.33,64.64,24.78,5.55,14.62.17,32.35,8.23,47.71,18.47,35.19,87.03,30.18,86.2,75.69-.28,15.3-11,34.57,1.74,48.06,18.68,19.77,56.24,3.97,77.59.75"/>
      <path class="cls-31" d="M139.03,31.13c21.05,22.63,24.53,36.92,18.61,66.3-5.32,26.43,7.86,32.33,30.61,38.12,19.77,5.03,50.15,6,59.19,26.01,7.18,15.88,5.36,34.31,14.6,50.16,20.14,34.56,95.49,23.88,84.08,77.15-4.08,19.03-11.65,36.3,9.92,47.51,22.62,11.75,48.64-.5,72.38,1.03"/>
      <path class="cls-19" d="M136.76,34.11c21.18,23.36,18.97,36.93,14.36,65.87-4.38,27.52,12.91,31.86,35.22,36.95,21.72,4.96,43.15,6.51,52.08,28.28,6.79,16.55,9.22,35.53,19.27,50.69,22.84,34.46,98.6,16.86,82.06,76.09-5.7,20.42-10.19,36.96,13.81,46.77,23.44,9.58,48.01-2.08,71.37,5.5"/>
      <path class="cls-20" d="M134.29,37.02c20.31,23.53,13.62,37.14,11.18,65.11-2.39,27.34,17.34,30.88,38.74,35.86,23.5,5.47,36.6,9.25,46.73,31.02,7.49,16.09,12.08,36.23,23.04,50.38,14.19,18.32,43.39,17.29,63.3,26.6,23.65,11.07,22.97,26.79,16.25,48.94-6.61,21.79-6.47,37.27,18.32,45.87,23.19,8.05,48.11-1.69,69.5,10.6"/>
      <path class="cls-21" d="M131.43,40.01c18.52,23.25,8.98,37.36,9.35,63.93.37,26.72,20.33,29.69,41.11,35.06,46.54,12.03,40.96,53.44,69.22,83.31,16.82,17.78,46.07,14.65,66.63,25.78,22.06,11.95,15.56,29.87,9.85,49.61-17.25,59.64,60.6,39.25,90.02,60.86"/>
      <path class="cls-23" d="M128,43.25c16.1,22.12,6.07,37.68,9.15,62.25,3.28,26.11,21.67,28.66,42.33,34.94,41.01,12.47,41.38,59.64,69.83,84.29,19.1,16.54,47.54,12.13,67.75,25.77,19.18,12.95,9.21,32.06,5.01,49.81-5.59,23.6,5.62,36.04,28.16,43.51,23,7.62,44.27,4.83,63.43,21.72"/>
      <path class="cls-22" d="M123.77,46.92c13.67,19.45,6.38,36.31,10.43,58.08,5.53,29.73,22.57,28.88,45.74,38.33,35.64,14.54,38.83,64,68.05,83.86,19.25,13.08,55.24,11.14,70.03,29.16,10.82,13.18,2.08,29.18-.17,43.63-3.48,22.34,6,34.66,26.4,42.99,24.42,9.98,45.9,9.39,65.24,29.22"/>
      <path class="cls-18" d="M118.52,50.6c14.79,13.55,9.08,38.6,13.68,56.3,7.71,29.67,21.06,28.13,44.47,39.93,33.84,17.06,40.11,63.84,71.16,82.6,17.54,10.6,54.31,12.46,65.66,30.62,8.49,13.58.37,27.95-.24,42.37-.95,22.18,12.4,33.13,31.51,41.27,23.82,10.14,42.65,14.38,60.32,34.7"/>
      <path class="cls-17" d="M112.4,53.86c14,13.37,12.64,38.3,17.72,55.77,8.38,28.83,20.03,28.47,42.64,41.76,32.96,19.38,42.64,62.04,75.19,80.45,17.03,9.64,49.97,13.28,59.83,32.05,6.89,13.13.06,27.1,1.46,40.94,2.15,21.31,18.24,31.17,36.15,39.52,22.73,10.59,39.07,19.66,55.04,39.7"/>
      <path class="cls-26" d="M105.79,56.76c13.87,15.13,16.49,37.48,21.93,56.38,7.64,26.52,18.74,31.1,40.42,43.77,33.52,19.6,46.4,59.11,79.94,77.64,16.78,9.26,44.66,13.9,53.24,33.26,5.57,12.55.98,26.58,4.57,39.52,5.5,19.84,23.16,28.75,40.04,37.8,20.89,11.2,35.44,25.11,49.64,44.09"/>
      <path class="cls-25" d="M99.01,59.37c13.84,16.28,19.71,35.78,25.25,55.88,6.92,25.1,15.62,34.04,37.46,46.24,35.07,19.59,51.73,56.15,86.36,75.98,16.57,9.49,37.84,14.34,45.73,33.42,4.78,11.57,2.99,24.85,7.9,36.42,8.5,20.01,28.94,28.43,45.94,39.69,17.83,11.8,30.62,29.76,42.98,46.89"/>
      <path class="cls-24" d="M92.32,61.75c15,17.77,22.4,36.48,28.45,58.56,6.64,24.21,14.67,37.09,37.57,46.88,36.46,15.59,55,53.41,89.15,73.73,16.5,9.82,32.33,15.11,39.04,34.13,4.22,11.96,5.17,24.22,12.49,35.1,11.84,17.6,32.61,24.94,48.2,38.25,15.3,13.06,26.63,33.5,38.4,49.76"/>
      <path class="cls-13" d="M85.91,63.96c15.3,20.23,24.04,37.6,30.74,62.07,7,25.55,14.28,38.51,39.4,46.63,19.38,6.26,28.31,17.8,41.24,32.26,14.29,15.98,31,28.34,49.01,39.82,16.8,10.71,25.88,16.22,32.64,34.62,4.75,12.93,7.68,23.23,17.82,33.47,14.57,14.7,35.62,21.88,49.3,37.43,13.42,15.26,21.7,35.76,34.61,51.92"/>
      <path class="cls-9" d="M79.93,66.09c16.28,21.32,24.85,40.37,32.01,66.09,3.12,11.21,6.99,26.29,15.76,35.05,7.62,7.61,17.15,7.65,27.22,10.59,20.32,5.93,25.35,17.15,38.55,31.31,14.65,15.72,33.53,27.48,50.94,39.77,16.01,11.3,20.46,17.55,26.8,34.96,5.14,14.09,11.04,22.67,23.58,31.54,16.1,11.39,38.63,20.03,49.29,37.48,11.72,19.19,16.09,35.97,31.81,53.26"/>
      <path class="cls-8" d="M74.46,68.19c17.23,22.58,24.49,43.24,32.23,70.21,3.44,11.98,6.97,26.06,16.78,34.39,8.61,7.3,20.81,6.81,31.36,9.81,20.59,5.86,22.61,17.53,35.8,31.18,14.83,15.35,34.48,26.19,51.03,39.51,14.54,11.71,15.52,19.2,21.79,35.21,5.86,14.96,15.45,22,29.43,29.42,18.23,9.68,38.42,18.32,47.69,37.87,3.97,8.37,3.68,18.37,8.02,26.92,5.54,10.91,13.63,18.68,22.36,27.25"/>
      <path class="cls-10" d="M69.52,70.33c18.01,23.97,23.82,45.6,31.55,73.92,3.82,13.98,7.48,25.79,18.96,33.39,10.08,6.67,24.21,5.95,35.63,9.37,19.43,5.82,20.37,18.67,33.14,31.61,14.71,14.91,34.06,24.81,49.25,39.19,12.39,11.73,11.46,21.2,17.83,35.51,6.82,15.31,20.36,20.99,35.02,27.29,20.29,8.71,37.72,16.21,44.53,38.26,2.8,9.08.99,18.12,5.67,27.24,5.72,11.15,15.39,19.13,24.52,27.55"/>
      <path class="cls-11" d="M65.07,72.57c18.23,25.09,23.47,47.6,30.72,76.9,8.8,35.57,31.5,31.45,61.34,41.62,17.13,5.84,18.13,20.7,30.65,32.36,14.56,13.56,32.77,23.84,45.84,38.85,9.88,11.35,8.35,23.51,14.99,35.97,8.09,15.19,25.66,19.32,40.65,25.04,22.24,8.48,35.69,14.85,39.44,38.76,1.56,9.95-1.02,17.6,4.41,27.39,6.17,11.11,17.71,19.51,27.02,27.84"/>
      <path class="cls-12" d="M61,74.99c10,13.57,18.19,27.21,23.43,43.28,4.38,13.44,4.41,28.71,9.57,41.67,12.13,30.47,42.51,22,66.96,36.2,11.69,6.79,13.32,19.06,23.13,28.95,13.82,13.92,33.88,25.04,44.66,41.62,7.15,11,5.26,25.11,12.24,35.85,10.54,16.23,33.95,18.02,50.41,24.57,9.11,3.63,20.56,7.77,26.23,16.12,6.14,9.05,2.63,13.76,2.64,23.43.02,27.97,13.68,36.5,34.4,54.26"/>
      <path class="cls-7" d="M57.16,77.65c10.26,14.55,18.24,29.33,23.81,46.25,4.12,12.51,4.65,27.87,10.5,39.47,14.52,28.78,49.32,18.3,70.61,36.66,9.05,7.81,12.64,20.27,22.12,29.51,12.86,12.54,30.52,25.1,38.54,41.61,5.59,11.5,3.3,26.36,11.81,36.52,12.7,15.16,39.13,14.55,56.09,22.02,8.17,3.59,18.63,8.57,22.32,17.08,4.09,9.43-1.39,14.27-2.18,23.33-2.37,27.39,19.13,38.46,38.6,54.57"/>
      <path class="cls-15" d="M53.5,80.57c10.17,15.51,18.23,31.21,24.3,48.73,4.1,11.85,5.52,26.64,12.6,37.03,8.75,12.85,21.46,17.11,36.47,22.64,10.57,3.89,28.29,5.89,35.5,15.02,7.71,9.78,12.36,20,22.3,29.65,12.38,12.04,25.91,25.19,31.46,41.98,4.13,12.52,2.06,27.43,12.77,37.12,15.5,14.01,43.39,9.61,61.3,19.5,7.38,4.08,15.13,9.68,16.69,18.36,1.66,9.19-5.36,14.58-6.38,22.98-3.18,26.17,25.92,40.38,43.92,54.89"/>
      <path class="cls-14" d="M50,84.13c9.98,16.17,18.19,32.48,24.87,50.25,4.36,11.6,6.77,24.88,15.08,34.34,18.49,21.05,53.02,19.07,71.2,39.56,3.89,4.38,5.27,10.73,9.26,15.53,4.18,5.03,10.23,8.94,14.86,13.58,12.5,12.53,20.69,25.39,23.87,42.73,2.49,13.61,1.83,29.14,15.25,37.41,19.16,11.8,46.72,3.47,65.4,17.39,20.37,15.18,1.84,24.91-.02,42.28-2.62,24.48,33.5,42.13,50.05,55.24"/>
      <path class="cls-16" d="M46.53,88.4c14.24,23.59,23.28,63.59,43.36,82.57,20.39,19.27,50.93,19.68,68.8,41.56,19.69,24.1,41.17,38.1,43.38,72.04,1.06,16.26,2.94,29.95,19.7,36.84,17.88,7.35,54.24-.73,67.43,16.4,13.91,18.06-9.15,26.13-10.15,43.1-1.3,22.11,41.49,43.82,56.53,55.62"/>
      <path class="cls-3" d="M43.12,93.24c14.48,23.87,24.96,61.75,46.8,79.96,12.58,10.49,28.72,14.75,43.08,22.09,12.12,6.2,14.06,11.24,22.17,21.43,8.53,10.72,22.27,16.11,31.03,27.06,12.23,15.3,8.82,27.38,8.68,45.13-.15,19.01,6.17,31.37,26,35.48,14.82,3.07,59.41-1.13,67.19,16.62,8,18.25-19.07,27.09-19.18,43.68-.13,19.35,49.19,45.34,62.79,56.01"/>
      <path class="cls-2" d="M39.78,98.54c14.15,22.78,23.96,55.14,44.11,73.29,12.34,11.12,28.61,15.65,42.45,24.25,7.76,3.09,14.17,8.03,19.24,14.83,1.34,2.64,2.68,5.27,4.02,7.91,12.77,11.13,30.27,15,38.68,31.19,7.71,14.84.24,27.72-.47,43.12-1.16,24.98,13.5,30.67,36.16,33.59,14.7,1.89,55.49-2.81,61.49,15.8,5.92,18.36-25.88,27.97-25.74,44.97.1,11.93,19.23,20.7,27.17,26.63,13.77,10.28,27.63,20.21,41.11,30.89"/>
      <path class="cls-4" d="M36.49,104.18c14.39,22.22,25.5,52.92,46,70.15,12.46,10.48,28.21,15.47,40.92,25.42,8.44,6.61,13.52,15.03,22.13,21.39,14.22,10.5,35.13,12.14,41.62,31.76,5.05,15.27-6.14,29.18-6.58,44.3-1.67,57.37,98.81,8.43,102.19,49.1,1.52,18.31-35.27,26.5-30.42,45.3,3.01,11.65,22.63,20.55,31.4,26.99,13.75,10.1,27.38,19.98,40.65,30.73"/>
      <path class="cls-5" d="M33.21,110.07c14.87,21.72,26.42,50.01,46.89,67,12.04,9.99,26.24,16.57,38.11,26.74,8.24,7.05,13.78,14.07,23.66,18.71,15.45,7.25,39.71,12.23,43.02,32.99,2.5,15.65-11.97,29.84-11.46,45.57,1.56,48.53,114.12,11.63,104.83,49.37-4.05,16.43-38.46,26.21-31.15,45.34,4.45,11.63,24.86,20.7,34.25,27.55,13.45,9.82,26.57,19.51,39.33,30.26"/>
      <path class="cls-6" d="M29.9,116.11c15.3,20.92,26.82,47.05,46.66,63.98,18.17,15.51,39.09,36.16,61.89,43.24,17.17,5.33,42.1,12.32,42.38,34.63.21,16.39-16.6,29.49-14.24,46.73,5.6,40.92,124.76,10.86,105.62,50.25-7.85,16.16-39.3,25.05-28.21,45.3,6.53,11.91,25.1,20.31,35.6,28.03,12.86,9.46,25.16,18.78,37.07,29.45"/>
    </g>
  </g>
</svg>